<mxfile host="app.diagrams.net" agent="Mozilla/5.0 (Windows NT 10.0; Win64; x64) AppleWebKit/537.36 (KHTML, like Gecko) Chrome/133.0.0.0 Safari/537.36" version="26.0.16">
  <diagram name="Page-1" id="1OOwEel21y2oHz1tBH6z">
    <mxGraphModel dx="1034" dy="492" grid="1" gridSize="10" guides="1" tooltips="1" connect="1" arrows="1" fold="1" page="1" pageScale="1" pageWidth="850" pageHeight="1100" math="0" shadow="0">
      <root>
        <mxCell id="0" />
        <mxCell id="1" parent="0" />
        <mxCell id="JXa8DVZ_fMXPbQ8aF4yI-1" value="mulai" style="ellipse;whiteSpace=wrap;html=1;" vertex="1" parent="1">
          <mxGeometry x="270" y="80" width="120" height="50" as="geometry" />
        </mxCell>
        <mxCell id="JXa8DVZ_fMXPbQ8aF4yI-3" value="!,n" style="rounded=0;whiteSpace=wrap;html=1;" vertex="1" parent="1">
          <mxGeometry x="270" y="170" width="120" height="40" as="geometry" />
        </mxCell>
        <mxCell id="JXa8DVZ_fMXPbQ8aF4yI-4" value="inputkan bilangan" style="shape=parallelogram;perimeter=parallelogramPerimeter;whiteSpace=wrap;html=1;fixedSize=1;" vertex="1" parent="1">
          <mxGeometry x="260" y="260" width="120" height="50" as="geometry" />
        </mxCell>
        <mxCell id="JXa8DVZ_fMXPbQ8aF4yI-5" value="n!=n*(n-1)" style="rounded=0;whiteSpace=wrap;html=1;" vertex="1" parent="1">
          <mxGeometry x="260" y="340" width="120" height="60" as="geometry" />
        </mxCell>
        <mxCell id="JXa8DVZ_fMXPbQ8aF4yI-6" value="cetak hasil bilangan" style="shape=parallelogram;perimeter=parallelogramPerimeter;whiteSpace=wrap;html=1;fixedSize=1;" vertex="1" parent="1">
          <mxGeometry x="250" y="440" width="140" height="60" as="geometry" />
        </mxCell>
        <mxCell id="JXa8DVZ_fMXPbQ8aF4yI-8" value="selesai" style="ellipse;whiteSpace=wrap;html=1;" vertex="1" parent="1">
          <mxGeometry x="260" y="530" width="120" height="40" as="geometry" />
        </mxCell>
        <mxCell id="JXa8DVZ_fMXPbQ8aF4yI-9" value="" style="endArrow=classic;html=1;rounded=0;entryX=0.444;entryY=0;entryDx=0;entryDy=0;entryPerimeter=0;" edge="1" parent="1" source="JXa8DVZ_fMXPbQ8aF4yI-1" target="JXa8DVZ_fMXPbQ8aF4yI-3">
          <mxGeometry width="50" height="50" relative="1" as="geometry">
            <mxPoint x="400" y="350" as="sourcePoint" />
            <mxPoint x="450" y="300" as="targetPoint" />
          </mxGeometry>
        </mxCell>
        <mxCell id="JXa8DVZ_fMXPbQ8aF4yI-10" value="" style="endArrow=classic;html=1;rounded=0;exitX=0.5;exitY=1;exitDx=0;exitDy=0;entryX=0.5;entryY=0;entryDx=0;entryDy=0;" edge="1" parent="1" source="JXa8DVZ_fMXPbQ8aF4yI-3" target="JXa8DVZ_fMXPbQ8aF4yI-4">
          <mxGeometry width="50" height="50" relative="1" as="geometry">
            <mxPoint x="400" y="350" as="sourcePoint" />
            <mxPoint x="450" y="300" as="targetPoint" />
          </mxGeometry>
        </mxCell>
        <mxCell id="JXa8DVZ_fMXPbQ8aF4yI-11" value="" style="endArrow=classic;html=1;rounded=0;exitX=0.5;exitY=1;exitDx=0;exitDy=0;entryX=0.5;entryY=0;entryDx=0;entryDy=0;" edge="1" parent="1" source="JXa8DVZ_fMXPbQ8aF4yI-4" target="JXa8DVZ_fMXPbQ8aF4yI-5">
          <mxGeometry width="50" height="50" relative="1" as="geometry">
            <mxPoint x="400" y="470" as="sourcePoint" />
            <mxPoint x="450" y="420" as="targetPoint" />
          </mxGeometry>
        </mxCell>
        <mxCell id="JXa8DVZ_fMXPbQ8aF4yI-13" value="" style="endArrow=classic;html=1;rounded=0;exitX=0.5;exitY=1;exitDx=0;exitDy=0;entryX=0.5;entryY=0;entryDx=0;entryDy=0;" edge="1" parent="1" source="JXa8DVZ_fMXPbQ8aF4yI-5" target="JXa8DVZ_fMXPbQ8aF4yI-6">
          <mxGeometry width="50" height="50" relative="1" as="geometry">
            <mxPoint x="400" y="470" as="sourcePoint" />
            <mxPoint x="450" y="420" as="targetPoint" />
          </mxGeometry>
        </mxCell>
        <mxCell id="JXa8DVZ_fMXPbQ8aF4yI-14" value="" style="endArrow=classic;html=1;rounded=0;exitX=0.433;exitY=1.044;exitDx=0;exitDy=0;exitPerimeter=0;entryX=0.439;entryY=-0.053;entryDx=0;entryDy=0;entryPerimeter=0;" edge="1" parent="1" source="JXa8DVZ_fMXPbQ8aF4yI-6" target="JXa8DVZ_fMXPbQ8aF4yI-8">
          <mxGeometry width="50" height="50" relative="1" as="geometry">
            <mxPoint x="400" y="460" as="sourcePoint" />
            <mxPoint x="450" y="410" as="targetPoint" />
          </mxGeometry>
        </mxCell>
      </root>
    </mxGraphModel>
  </diagram>
</mxfile>
